HIERARCHY
ROOT hip
{
  OFFSET 0 0 0
  CHANNELS 6 Xposition Yposition Zposition Zrotation Yrotation Xrotation
  JOINT abdomen
  {
    OFFSET 0 20.6881 -0.73152
    CHANNELS 3 Zrotation Xrotation Yrotation
    JOINT chest
    {
      OFFSET 0 11.7043 -0.48768
      CHANNELS 3 Zrotation Xrotation Yrotation
      JOINT neck
      {
        OFFSET 0 22.1894 -2.19456
        CHANNELS 3 Zrotation Xrotation Yrotation
        JOINT head
        {
          OFFSET -0.24384 7.07133 1.2192
          CHANNELS 3 Zrotation Xrotation Yrotation
          JOINT leftEye
          {
            OFFSET 4.14528 8.04674 8.04672
            CHANNELS 3 Zrotation Xrotation Yrotation
            End Site
            {
              OFFSET 1 0 0
            }
          }
          JOINT rightEye
          {
            OFFSET -3.6576 8.04674 8.04672
            CHANNELS 3 Zrotation Xrotation Yrotation
            End Site
            {
              OFFSET 1 0 0
            }
          }
        }
      }
      JOINT rCollar
      {
        OFFSET -2.68224 19.2634 -4.8768
        CHANNELS 3 Zrotation Xrotation Yrotation
        JOINT rShldr
        {
          OFFSET -8.77824 -1.95073 1.46304
          CHANNELS 3 Zrotation Xrotation Yrotation
          JOINT rForeArm
          {
            OFFSET -28.1742 -1.7115 0.48768
            CHANNELS 3 Zrotation Xrotation Yrotation
            JOINT rHand
            {
              OFFSET -22.5879 0.773209 7.07136
              CHANNELS 3 Zrotation Xrotation Yrotation
              JOINT rThumb1
              {
                OFFSET -1.2192 -0.487915 3.41376
                CHANNELS 3 Zrotation Xrotation Yrotation
                JOINT rThumb2
                {
                  OFFSET -3.37035 -0.52449 3.41376
                  CHANNELS 3 Zrotation Xrotation Yrotation
                  End Site
                  {
                    OFFSET -1.78271 -1.18214 1.43049
                  }
                }
              }
              JOINT rIndex1
              {
                OFFSET -7.75947 0.938293 5.60832
                CHANNELS 3 Zrotation Xrotation Yrotation
                JOINT rIndex2
                {
                  OFFSET -2.54057 -0.884171 1.56538
                  CHANNELS 3 Zrotation Xrotation Yrotation
                  End Site
                  {
                    OFFSET -1.62519 -0.234802 1.16502
                  }
                }
              }
              JOINT rMid1
              {
                OFFSET -8.24714 1.18213 3.41376
                CHANNELS 3 Zrotation Xrotation Yrotation
                JOINT rMid2
                {
                  OFFSET -3.10165 -0.590103 1.0647
                  CHANNELS 3 Zrotation Xrotation Yrotation
                  End Site
                  {
                    OFFSET -2.48547 -0.328903 0.83742
                  }
                }
              }
              JOINT rRing1
              {
                OFFSET -8.82822 0.546677 1.51678
                CHANNELS 3 Zrotation Xrotation Yrotation
                JOINT rRing2
                {
                  OFFSET -2.60934 -0.819778 -0.0198488
                  CHANNELS 3 Zrotation Xrotation Yrotation
                  End Site
                  {
                    OFFSET -2.33842 -0.294052 0.168128
                  }
                }
              }
              JOINT rPinky1
              {
                OFFSET -8.27202 -0.0477905 -0.4584
                CHANNELS 3 Zrotation Xrotation Yrotation
                JOINT rPinky2
                {
                  OFFSET -1.82734 -0.647385 -0.700984
                  CHANNELS 3 Zrotation Xrotation Yrotation
                  End Site
                  {
                    OFFSET -1.69225 -0.51767 -0.607171
                  }
                }
              }
            }
          }
        }
      }
      JOINT lCollar
      {
        OFFSET 2.68224 19.2634 -4.8768
        CHANNELS 3 Zrotation Xrotation Yrotation
        JOINT lShldr
        {
          OFFSET 8.77824 -1.95073 1.46304
          CHANNELS 3 Zrotation Xrotation Yrotation
          JOINT lForeArm
          {
            OFFSET 28.1742 -1.7115 0.48768
            CHANNELS 3 Zrotation Xrotation Yrotation
            JOINT lHand
            {
              OFFSET 22.5879 0.773209 7.07136
              CHANNELS 3 Zrotation Xrotation Yrotation
              JOINT lThumb1
              {
                OFFSET 1.2192 -0.487915 3.41376
                CHANNELS 3 Zrotation Xrotation Yrotation
                JOINT lThumb2
                {
                  OFFSET 3.37035 -0.52449 3.41376
                  CHANNELS 3 Zrotation Xrotation Yrotation
                  End Site
                  {
                    OFFSET 1.78271 -1.18214 1.43049
                  }
                }
              }
              JOINT lIndex1
              {
                OFFSET 7.75947 0.938293 5.60832
                CHANNELS 3 Zrotation Xrotation Yrotation
                JOINT lIndex2
                {
                  OFFSET 2.54057 -0.884171 1.56538
                  CHANNELS 3 Zrotation Xrotation Yrotation
                  End Site
                  {
                    OFFSET 1.62519 -0.234802 1.16502
                  }
                }
              }
              JOINT lMid1
              {
                OFFSET 8.24714 1.18213 3.41376
                CHANNELS 3 Zrotation Xrotation Yrotation
                JOINT lMid2
                {
                  OFFSET 3.10165 -0.590103 1.0647
                  CHANNELS 3 Zrotation Xrotation Yrotation
                  End Site
                  {
                    OFFSET 2.48547 -0.328903 0.83742
                  }
                }
              }
              JOINT lRing1
              {
                OFFSET 8.82822 0.546677 1.51678
                CHANNELS 3 Zrotation Xrotation Yrotation
                JOINT lRing2
                {
                  OFFSET 2.60934 -0.819778 -0.0198488
                  CHANNELS 3 Zrotation Xrotation Yrotation
                  End Site
                  {
                    OFFSET 2.33842 -0.294052 0.168128
                  }
                }
              }
              JOINT lPinky1
              {
                OFFSET 8.27202 -0.0477905 -0.4584
                CHANNELS 3 Zrotation Xrotation Yrotation
                JOINT lPinky2
                {
                  OFFSET 1.82734 -0.647385 -0.700984
                  CHANNELS 3 Zrotation Xrotation Yrotation
                  End Site
                  {
                    OFFSET 1.69225 -0.51767 -0.607171
                  }
                }
              }
            }
          }
        }
      }
    }
  }
  JOINT rButtock
  {
    OFFSET -8.77824 4.35084 1.2192
    CHANNELS 3 Zrotation Xrotation Yrotation
    JOINT rThigh
    {
      OFFSET 0 -1.70687 -2.19456
      CHANNELS 3 Zrotation Xrotation Yrotation
      JOINT rShin
      {
        OFFSET 0 -36.8199 0.73152
        CHANNELS 3 Zrotation Xrotation Yrotation
        JOINT rFoot
        {
          OFFSET 0.73152 -45.1104 -5.12064
          CHANNELS 3 Zrotation Xrotation Yrotation
          End Site
          {
            OFFSET -1.1221 -3.69964 12.103
          }
        }
      }
    }
  }
  JOINT lButtock
  {
    OFFSET 8.77824 4.35084 1.2192
    CHANNELS 3 Zrotation Xrotation Yrotation
    JOINT lThigh
    {
      OFFSET 0 -1.70687 -2.19456
      CHANNELS 3 Zrotation Xrotation Yrotation
      JOINT lShin
      {
        OFFSET 0 -36.8199 0.73152
        CHANNELS 3 Zrotation Xrotation Yrotation
        JOINT lFoot
        {
          OFFSET -0.73152 -45.1104 -5.12064
          CHANNELS 3 Zrotation Xrotation Yrotation
          End Site
          {
            OFFSET 1.1221 -3.69964 12.103
          }
        }
      }
    }
  }
}
MOTION
Frames:	5
Frame Time:	0.03333
-1.5297000063583255 40.207600593566895 -1.838999994652113 -152.79598999023438 82.98649597167969 -147.32199096679688 -1.2447593212127686 18.214723587036133 18.532583236694336 -5.162787914276123 -14.158602714538574 4.454167366027832 0.5964769721031189 14.261200904846191 13.312103271484375 -1.2295632362365723 -20.854297637939453 26.027294158935547 -0.0 0.0 -0.0 -0.0 0.0 -0.0 -0.0 0.0 -0.0 -11.81679916381836 49.27629089355469 76.57318878173828 -27.345497131347656 -43.02670669555664 89.51629638671875 -0.07466214895248413 8.46840763092041 1.1978853940963745 -0.0 0.0 -0.0 -0.0 0.0 -0.0 -0.0 0.0 -0.0 7.73087739944458 5.47489595413208 0.41732463240623474 -0.0 0.0 -0.0 2.9054994583129883 0.9650753736495972 0.10300876200199127 -0.0 0.0 -0.0 10.278595924377441 0.7317469120025635 0.026285577565431595 -0.0 0.0 -0.0 2.221662759780884 -0.7335850596427917 -0.20831839740276337 -0.0 0.0 -0.0 -56.416996002197266 6.31413459777832 -19.158092498779297 26.636905670166016 -44.92288589477539 -93.30278778076172 2.2690799236297607 -38.677005767822266 6.459536552429199 -0.0 0.0 -0.0 -0.0 0.0 -0.0 -0.0 0.0 -0.0 -7.73087739944458 5.47489595413208 -0.41732463240623474 -0.0 0.0 -0.0 -2.9054994583129883 0.9650753736495972 -0.10300876200199127 -0.0 0.0 -0.0 -10.278595924377441 0.7317469120025635 -0.026285577565431595 -0.0 0.0 -0.0 -2.221662759780884 -0.7335850596427917 0.20831839740276337 -0.0 0.0 -0.0 -73.80339050292969 -46.377994537353516 -58.733394622802734 -175.7279510498047 74.82502746582031 178.13392639160156 -3.991168737411499 -27.041101455688477 -8.435888290405273 -0.0 0.0 -0.0 95.62588500976562 -54.18870162963867 73.6679916381836 174.70022583007812 76.60148620605469 -175.87034606933594 -3.8610990047454834 -25.896095275878906 -3.849637031555176
-1.5653000067686662 40.201398730278015 -1.8339999947784236 -153.13099670410156 82.90587615966797 -147.5889892578125 -1.149548053741455 18.22252082824707 18.375776290893555 -5.105288982391357 -14.138497352600098 4.420709133148193 0.4852248430252075 14.296788215637207 13.335707664489746 -1.22555673122406 -21.007404327392578 26.077098846435547 -0.0 0.0 -0.0 -0.0 0.0 -0.0 -0.0 0.0 -0.0 -12.087502479553223 49.243690490722656 76.64439392089844 -27.343595504760742 -43.0271110534668 89.52740478515625 -0.10824435949325562 8.44582462310791 1.1972765922546387 -0.0 0.0 -0.0 -0.0 0.0 -0.0 -0.0 0.0 -0.0 7.73087739944458 5.47489595413208 0.41732463240623474 -0.0 0.0 -0.0 2.9054994583129883 0.9650753736495972 0.10300876200199127 -0.0 0.0 -0.0 10.278595924377441 0.7317469120025635 0.026285577565431595 -0.0 0.0 -0.0 2.221662759780884 -0.7335850596427917 -0.20831839740276337 -0.0 0.0 -0.0 -56.45170593261719 6.316776275634766 -19.153400421142578 26.641305923461914 -44.91239929199219 -93.28170013427734 2.285006284713745 -38.7864990234375 6.484996795654297 -0.0 0.0 -0.0 -0.0 0.0 -0.0 -0.0 0.0 -0.0 -7.73087739944458 5.47489595413208 -0.41732463240623474 -0.0 0.0 -0.0 -2.9054994583129883 0.9650753736495972 -0.10300876200199127 -0.0 0.0 -0.0 -10.278595924377441 0.7317469120025635 -0.026285577565431595 -0.0 0.0 -0.0 -2.221662759780884 -0.7335850596427917 0.20831839740276337 -0.0 0.0 -0.0 -73.86299896240234 -46.400604248046875 -58.822486877441406 -175.74075317382812 74.79511260986328 178.15371704101562 -4.024981498718262 -27.01610565185547 -8.492938041687012 -0.0 0.0 -0.0 95.72010803222656 -54.3545036315918 73.7665023803711 174.6925048828125 76.633056640625 -175.87091064453125 -3.7739319801330566 -25.852991104125977 -3.701014280319214
-1.5956000075675547 40.19080102443695 -1.8259999949805206 -153.56295776367188 82.84781646728516 -147.96902465820312 -1.0423078536987305 18.2307071685791 18.214786529541016 -5.051870822906494 -14.105307579040527 4.3867716789245605 0.36666586995124817 14.333687782287598 13.361199378967285 -1.1785091161727905 -21.134008407592773 26.138399124145508 -0.0 0.0 -0.0 -0.0 0.0 -0.0 -0.0 0.0 -0.0 -12.362699508666992 49.196800231933594 76.74758911132812 -27.342803955078125 -43.0225944519043 89.53199005126953 -0.10760505497455597 8.415878295898438 1.192868947982788 -0.0 0.0 -0.0 -0.0 0.0 -0.0 -0.0 0.0 -0.0 7.73087739944458 5.47489595413208 0.41732463240623474 -0.0 0.0 -0.0 2.9054994583129883 0.9650753736495972 0.10300876200199127 -0.0 0.0 -0.0 10.278595924377441 0.7317469120025635 0.026285577565431595 -0.0 0.0 -0.0 2.221662759780884 -0.7335850596427917 -0.20831839740276337 -0.0 0.0 -0.0 -56.487388610839844 6.322571277618408 -19.132476806640625 26.642902374267578 -44.90849304199219 -93.27369689941406 2.3051414489746094 -38.924095153808594 6.517091751098633 -0.0 0.0 -0.0 -0.0 0.0 -0.0 -0.0 0.0 -0.0 -7.73087739944458 5.47489595413208 -0.41732463240623474 -0.0 0.0 -0.0 -2.9054994583129883 0.9650753736495972 -0.10300876200199127 -0.0 0.0 -0.0 -10.278595924377441 0.7317469120025635 -0.026285577565431595 -0.0 0.0 -0.0 -2.221662759780884 -0.7335850596427917 0.20831839740276337 -0.0 0.0 -0.0 -73.89320373535156 -46.42609786987305 -58.88029861450195 -175.75294494628906 74.7741928100586 178.17593383789062 -4.093963146209717 -26.975093841552734 -8.610269546508789 -0.0 0.0 -0.0 95.80359649658203 -54.50309753417969 73.84630584716797 174.69105529785156 76.66016387939453 -175.8788299560547 -3.702498435974121 -25.8135986328125 -3.5791032314300537
-1.6124000074341893 40.192198753356934 -1.8189999947935576 -153.77195739746094 82.78614807128906 -148.13502502441406 -0.9307136535644531 18.244495391845703 18.137107849121094 -5.1115312576293945 -14.098092079162598 4.361832618713379 0.38515111804008484 14.338183403015137 13.35289478302002 -1.1302121877670288 -21.087587356567383 26.12840461730957 -0.0 0.0 -0.0 -0.0 0.0 -0.0 -0.0 0.0 -0.0 -12.389801979064941 49.19619369506836 76.7446060180664 -27.348405838012695 -43.003997802734375 89.49758911132812 -0.08563852310180664 8.319219589233398 1.1774976253509521 -0.0 0.0 -0.0 -0.0 0.0 -0.0 -0.0 0.0 -0.0 7.73087739944458 5.47489595413208 0.41732463240623474 -0.0 0.0 -0.0 2.9054994583129883 0.9650753736495972 0.10300876200199127 -0.0 0.0 -0.0 10.278595924377441 0.7317469120025635 0.026285577565431595 -0.0 0.0 -0.0 2.221662759780884 -0.7335850596427917 -0.20831839740276337 -0.0 0.0 -0.0 -56.42179870605469 6.411316394805908 -19.140295028686523 26.654207229614258 -44.88199234008789 -93.21959686279297 2.3126296997070312 -38.97500228881836 6.529008388519287 -0.0 0.0 -0.0 -0.0 0.0 -0.0 -0.0 0.0 -0.0 -7.73087739944458 5.47489595413208 -0.41732463240623474 -0.0 0.0 -0.0 -2.9054994583129883 0.9650753736495972 -0.10300876200199127 -0.0 0.0 -0.0 -10.278595924377441 0.7317469120025635 -0.026285577565431595 -0.0 0.0 -0.0 -2.221662759780884 -0.7335850596427917 0.20831839740276337 -0.0 0.0 -0.0 -73.8495864868164 -46.48219680786133 -58.84358596801758 -175.76214599609375 74.77101135253906 178.2071990966797 -4.251567363739014 -26.89219856262207 -8.881730079650879 -0.0 0.0 -0.0 95.89369201660156 -54.60820388793945 73.92509460449219 174.68702697753906 76.67777252197266 -175.87484741210938 -3.6983718872070312 -25.769100189208984 -3.5722036361694336
-1.6249000080279075 40.200600028038025 -1.815999994869344 -153.75601196289062 82.74408721923828 -148.09498596191406 -0.804740846157074 18.2799015045166 18.109994888305664 -5.192479610443115 -14.108108520507812 4.348618030548096 0.4443683624267578 14.305898666381836 13.326798439025879 -1.0955736637115479 -20.958894729614258 26.08049964904785 -0.0 0.0 -0.0 -0.0 0.0 -0.0 -0.0 0.0 -0.0 -12.33961009979248 49.2057991027832 76.68099975585938 -27.355998992919922 -42.980995178222656 89.45178985595703 -0.06975802034139633 8.233161926269531 1.1640713214874268 -0.0 0.0 -0.0 -0.0 0.0 -0.0 -0.0 0.0 -0.0 7.73087739944458 5.47489595413208 0.41732463240623474 -0.0 0.0 -0.0 2.9054994583129883 0.9650753736495972 0.10300876200199127 -0.0 0.0 -0.0 10.278595924377441 0.7317469120025635 0.026285577565431595 -0.0 0.0 -0.0 2.221662759780884 -0.7335850596427917 -0.20831839740276337 -0.0 0.0 -0.0 -56.334102630615234 6.538367748260498 -19.173599243164062 26.671100616455078 -44.84199905395508 -93.13800048828125 2.295644760131836 -38.97543716430664 6.522940635681152 -0.0 0.0 -0.0 -0.0 0.0 -0.0 -0.0 0.0 -0.0 -7.73087739944458 5.47489595413208 -0.41732463240623474 -0.0 0.0 -0.0 -2.9054994583129883 0.9650753736495972 -0.10300876200199127 -0.0 0.0 -0.0 -10.278595924377441 0.7317469120025635 -0.026285577565431595 -0.0 0.0 -0.0 -2.221662759780884 -0.7335850596427917 0.20831839740276337 -0.0 0.0 -0.0 -73.74800872802734 -46.536991119384766 -58.76970291137695 -175.7659149169922 74.78768157958984 178.2300262451172 -4.4119791984558105 -26.80790138244629 -9.159366607666016 -0.0 0.0 -0.0 95.97200012207031 -54.68970489501953 73.97030639648438 174.6805419921875 76.69715881347656 -175.86619567871094 -3.7141273021698 -25.726701736450195 -3.60131573677063
